<svg width="165" height="48" viewBox="0 0 165 48" fill="none" xmlns="http://www.w3.org/2000/svg">
<g clip-path="url(#clip0_4041_168035)">
<rect x="-0.128174" width="165" height="47" rx="8" fill="black"/>
<path d="M37.0462 23.1388C37.0462 19.2004 40.3693 17.2311 40.4924 17.1081C39.8299 16.1847 38.9633 15.4266 37.96 14.8929C36.9567 14.3592 35.8437 14.0643 34.7078 14.0311C32.2462 13.785 29.9077 15.5081 28.677 15.5081C27.4462 15.5081 25.477 14.0311 23.5078 14.0311C22.1918 14.0796 20.9108 14.4678 19.7893 15.1579C18.6678 15.8481 17.744 16.8167 17.1077 17.9696C14.277 22.8927 16.3693 29.9081 19.077 33.8465C20.3078 35.6927 21.9078 37.9081 24.0001 37.785C25.9693 37.785 26.7078 36.5542 29.1693 36.5542C31.6308 36.5542 32.2462 37.785 34.3385 37.785C36.4308 37.785 37.7847 35.8157 39.1385 33.8465C40.0593 32.4858 40.765 30.9913 41.2308 29.4157C41.2308 29.4157 37.0462 27.8157 37.0462 23.0157V23.1388ZM33.2308 11.4465C34.3722 10.0695 34.9446 8.30843 34.8308 6.52344C33.3539 6.52344 31.3847 7.50805 30.277 8.8619C29.2924 9.96959 28.4308 11.9388 28.5539 13.6619C30.4001 13.785 32.2462 12.8004 33.2308 11.4465ZM66.2154 37.5388H63.3847L61.5385 32.7388H56.2462L54.7693 37.5388H52.0616L57.3539 21.1696H60.5539L65.8462 37.5388H66.2154ZM61.2924 30.7696L60.0616 26.4619L59.077 23.385C58.8041 24.4146 58.5169 25.4403 58.2154 26.4619L56.8616 30.7696H61.1693H61.2924ZM79.7539 31.5081C79.7539 33.4773 79.1385 35.0773 78.1539 36.3081C77.675 36.7975 77.0993 37.1816 76.4635 37.4359C75.8277 37.6902 75.1459 37.8091 74.4616 37.785C72.8616 37.785 71.7539 37.2927 71.1385 36.185V42.3388H68.4308V29.6619V25.7234H70.6462L70.7693 27.6927C71.182 26.9981 71.7816 26.4337 72.4998 26.0637C73.218 25.6937 74.0257 25.5332 74.8308 25.6004C76.1847 25.6004 77.2924 26.0927 78.277 27.2004C79.2616 28.3081 79.6308 29.6619 79.6308 31.5081H79.7539ZM77.0462 31.5081C77.0314 30.5404 76.7317 29.5986 76.1847 28.8004C75.6924 27.9388 74.9539 27.5696 73.9693 27.5696C73.3539 27.5696 72.7385 27.8157 72.1231 28.185C71.6308 28.6773 71.2616 29.1696 71.1385 29.9081L71.0154 30.7696V32.7388C71.0154 33.6004 71.2616 34.3388 71.877 34.8311C72.4924 35.3234 73.1077 35.8157 73.8462 35.8157C74.8308 35.8157 75.5693 35.4465 76.1847 34.585C76.7801 33.7177 77.082 32.6825 77.0462 31.6311V31.5081ZM93.2924 31.5081C93.2924 33.4773 92.8001 35.0773 91.6924 36.3081C90.7077 37.2927 89.477 37.785 88.0001 37.785C86.5231 37.785 85.4155 37.2927 84.677 36.185V42.3388H82.0924V29.6619L81.9693 25.7234H84.1847L84.4308 27.6927C84.8339 27.0177 85.414 26.466 86.1082 26.0972C86.8025 25.7283 87.5844 25.5565 88.3693 25.6004C89.8462 25.6004 90.9539 26.0927 91.9385 27.2004C92.8001 28.3081 93.2924 29.6619 93.2924 31.5081ZM90.5847 31.5081C90.5847 30.4004 90.3385 29.5388 89.8462 28.8004C89.2308 27.9388 88.4924 27.5696 87.5078 27.5696C86.8924 27.5696 86.277 27.8157 85.7847 28.185C85.2924 28.6773 84.9231 29.1696 84.8001 29.9081L84.677 30.7696V32.7388C84.677 33.6004 84.9231 34.3388 85.4154 34.8311C85.9078 35.4465 86.6462 35.8157 87.5078 35.8157C88.4924 35.8157 89.2308 35.4465 89.8462 34.585C90.3385 33.8465 90.5847 32.8619 90.5847 31.6311V31.5081ZM108.308 33.1081C108.308 34.4619 107.815 35.5696 106.954 36.4311C105.723 37.4157 104.369 37.9081 102.4 37.9081C100.677 37.9081 99.2001 37.5388 98.2154 36.9234L98.8308 34.7081C99.9385 35.3234 101.292 35.6927 102.523 35.6927C103.391 35.7848 104.263 35.5667 104.985 35.0773C105.477 34.585 105.723 33.9696 105.723 33.2311C105.723 32.6157 105.477 32.0004 105.108 31.5081C104.615 31.1388 103.877 30.6465 102.769 30.2773C99.9385 29.1696 98.4616 27.6927 98.4616 25.6004C98.4616 24.3696 98.9539 23.1388 100.062 22.2773C101.046 21.4157 102.4 21.0465 104 21.0465C105.477 21.0465 106.708 21.2927 107.692 21.785L107.077 24.0004C106.092 23.5081 105.108 23.2619 104 23.2619C103.015 23.2619 102.277 23.385 101.785 23.8773C101.292 24.3696 101.046 24.8619 101.046 25.3542C101.046 26.0927 101.292 26.585 101.785 26.9542C102.277 27.4465 103.015 27.8157 104.246 28.185C105.6 28.8004 106.708 29.4157 107.323 30.2773C107.939 31.0157 108.308 32.0004 108.308 33.1081ZM116.923 27.8157H114.092V33.6004C114.092 35.0773 114.585 35.6927 115.692 35.6927H116.923V37.6619C116.245 37.8636 115.537 37.9469 114.831 37.9081C113.846 37.9081 112.985 37.5388 112.369 36.9234C111.754 36.3081 111.508 35.3234 111.508 33.7234V27.8157H109.785V25.8465H111.508V23.7542L114.092 22.8927V25.8465H117.046V27.8157H116.923ZM130.092 31.6311C130.092 33.4773 129.6 34.9542 128.492 36.185C127.385 37.4157 126.031 37.9081 124.185 37.9081C122.462 37.9081 121.108 37.2927 120.123 36.185C119.139 35.0773 118.523 33.7234 118.523 31.8773C118.523 30.0311 119.015 28.5542 120.123 27.3234C121.108 26.0927 122.585 25.6004 124.431 25.6004C126.154 25.6004 127.508 26.2157 128.615 27.3234C129.6 28.5542 130.092 29.785 130.092 31.6311ZM127.385 31.7542C127.385 30.6465 127.139 29.785 126.646 28.9234C126.431 28.4943 126.095 28.1375 125.679 27.897C125.264 27.6564 124.787 27.5426 124.308 27.5696C123.323 27.5696 122.462 27.9388 121.846 28.9234C121.354 29.6619 121.231 30.6465 121.231 31.7542C121.231 32.985 121.477 33.8465 121.969 34.585C122.462 35.5696 123.2 36.0619 124.308 36.0619C125.292 36.0619 126.031 35.5696 126.646 34.585C127.139 33.8465 127.385 32.8619 127.385 31.7542ZM138.585 28.0619H137.723C137.309 28.0558 136.901 28.1541 136.535 28.3477C136.169 28.5413 135.858 28.824 135.631 29.1696C135.262 29.785 135.015 30.5234 135.015 31.5081V37.6619H132.431V29.5388L132.308 25.8465H134.523L134.646 28.185C135.015 27.3234 135.508 26.7081 136 26.2157C136.615 25.8465 137.231 25.6004 137.969 25.6004H138.585V28.185V28.0619ZM150.4 31.2619L150.277 32.4927H142.4C142.4 33.6004 142.769 34.4619 143.508 34.9542C144.246 35.5696 145.108 35.8157 146.092 35.8157C147.323 35.8157 148.308 35.6927 149.292 35.3234L149.662 37.1696C148.554 37.6619 147.2 37.9081 145.723 37.9081C143.877 37.9081 142.523 37.2927 141.415 36.3081C140.871 35.7108 140.449 35.0121 140.175 34.2518C139.9 33.4916 139.778 32.6847 139.815 31.8773C139.815 30.1542 140.308 28.6773 141.292 27.4465C142.4 26.2157 143.754 25.6004 145.477 25.6004C147.2 25.6004 148.431 26.2157 149.292 27.4465C150.031 28.4311 150.4 29.6619 150.4 31.1388V31.2619ZM147.939 30.5234C147.925 29.8219 147.711 29.1388 147.323 28.5542C146.831 27.8157 146.092 27.3234 145.231 27.3234C144.805 27.3303 144.389 27.4473 144.022 27.663C143.656 27.8787 143.351 28.1857 143.139 28.5542C142.646 29.0465 142.4 29.785 142.4 30.5234H147.815H147.939ZM60.3078 11.0773C60.3078 12.5542 59.9385 13.5388 59.077 14.4004C58.2154 15.0157 57.1077 15.385 55.6308 15.385L53.7847 15.2619V7.38498L56.0001 7.2619C57.1342 7.17065 58.265 7.47509 59.2001 8.12344C59.6136 8.49194 59.939 8.94878 60.1521 9.4601C60.3651 9.97143 60.4604 10.5241 60.4308 11.0773H60.3078ZM59.077 11.0773C59.077 10.2157 58.7077 9.47728 58.2154 8.98498C57.7231 8.49267 56.9847 8.24651 56.1231 8.24651H55.0154V14.4004H55.877C56.8616 14.4004 57.6001 14.0311 58.2154 13.5388C58.8308 13.0465 58.9539 12.185 58.9539 11.0773H59.077ZM67.5693 12.3081C67.5693 13.2927 67.3231 14.0311 66.8308 14.5234C66.2154 15.1388 65.6001 15.385 64.7385 15.385C64.3463 15.4192 63.9516 15.3588 63.5875 15.2089C63.2234 15.059 62.9006 14.8239 62.6462 14.5234C62.1539 14.0311 61.9077 13.2927 61.9077 12.4311C61.9077 11.5696 62.1539 10.8311 62.6462 10.2157C63.1385 9.60036 63.877 9.35421 64.7385 9.35421C65.6001 9.35421 66.3385 9.60036 66.8308 10.2157C67.3231 10.8311 67.5693 11.4465 67.5693 12.3081ZM66.3385 12.3081C66.3385 11.8157 66.0924 11.4465 65.8462 11.0773C65.7518 10.8609 65.5972 10.6763 65.4008 10.5454C65.2044 10.4144 64.9745 10.3427 64.7385 10.3388C64.4954 10.3071 64.2484 10.3488 64.0291 10.4584C63.8098 10.5681 63.6283 10.7407 63.5077 10.9542C63.2743 11.409 63.1883 11.9252 63.2616 12.4311C63.2616 12.9234 63.2616 13.4157 63.5077 13.6619C63.877 14.2773 64.2462 14.4004 64.7385 14.4004C65.2308 14.4004 65.6001 14.1542 65.9693 13.785L66.2154 12.3081H66.3385ZM77.2924 9.47728L75.4462 15.2619H74.2154L73.477 12.8004L72.9847 10.8311C72.9847 11.5696 72.7385 12.0619 72.4924 12.8004L71.7539 15.2619H70.5231L68.8001 9.47728H70.1539L70.8924 12.185C70.8924 12.9234 71.1385 13.4157 71.2616 14.0311L71.7539 12.185L72.4924 9.47728H73.6001L74.3385 12.185L74.8308 14.0311L75.3231 12.185L75.9385 9.47728H77.1693H77.2924ZM83.9385 15.2619H82.7077V11.9388C82.7077 10.9542 82.2154 10.4619 81.477 10.4619C81.2958 10.4469 81.1135 10.4722 80.9433 10.5361C80.773 10.5999 80.619 10.7007 80.4924 10.8311C80.2462 11.0773 80.1231 11.4465 80.1231 11.8157V15.2619H78.8924V11.0773V9.60036H80.0001V10.4619L80.7385 9.84651C81.1077 9.60036 81.477 9.47728 81.9693 9.47728C82.4616 9.47728 82.9539 9.60036 83.2001 9.96959C83.6924 10.4619 83.9385 11.0773 83.9385 11.9388V15.385V15.2619ZM87.5078 15.2619H86.277V6.89267H87.5078V15.2619ZM95.1385 12.3081C95.1385 13.2927 94.8924 14.0311 94.277 14.5234C93.7847 15.1388 93.0462 15.385 92.1847 15.385C91.8127 15.3996 91.4421 15.3297 91.1011 15.1805C90.76 15.0313 90.4572 14.8066 90.2154 14.5234C89.7231 14.0311 89.477 13.2927 89.477 12.4311C89.477 11.5696 89.7231 10.8311 90.2154 10.2157C90.7078 9.60036 91.4462 9.35421 92.3078 9.35421C93.1693 9.35421 93.7847 9.60036 94.4001 10.2157C94.8924 10.8311 95.1385 11.4465 95.1385 12.3081ZM93.7847 12.3081C93.7847 11.8157 93.6616 11.4465 93.4154 11.0773C93.0462 10.585 92.677 10.3388 92.1847 10.3388C91.9416 10.3071 91.6945 10.3488 91.4753 10.4584C91.256 10.5681 91.0744 10.7407 90.9539 10.9542C90.7205 11.409 90.6344 11.9252 90.7077 12.4311C90.7077 12.9234 90.7077 13.4157 91.077 13.6619C91.3231 14.2773 91.6924 14.4004 92.3078 14.4004C92.677 14.4004 93.0462 14.1542 93.4154 13.785C93.6616 13.4157 93.7847 12.9234 93.7847 12.3081ZM101.292 15.2619H100.062V14.7696C99.5693 15.2619 99.077 15.5081 98.3385 15.5081C97.7231 15.5081 97.3539 15.385 96.9847 15.0157C96.7385 14.6465 96.4924 14.2773 96.4924 13.785C96.4924 13.1696 96.8616 12.5542 97.477 12.185C98.0924 11.8157 98.8308 11.6927 99.9385 11.6927V11.5696C99.9385 10.7081 99.5693 10.3388 98.7077 10.3388C98.2154 10.3388 97.6001 10.585 97.2308 10.8311L96.9847 9.96959C97.477 9.60036 98.2154 9.47728 98.9539 9.47728C100.431 9.47728 101.169 10.3388 101.169 11.9388V14.0311L101.292 15.385V15.2619ZM100.062 13.2927V12.4311C98.5847 12.4311 97.8462 12.8004 97.8462 13.6619C97.8462 13.9081 97.8462 14.1542 98.0924 14.2773L98.7077 14.5234C99.077 14.5234 99.3231 14.5234 99.5693 14.2773L100.062 13.5388V13.2927ZM108.677 15.2619H107.446V14.4004C107.077 15.1388 106.462 15.385 105.6 15.385C104.862 15.385 104.369 15.1388 103.877 14.6465C103.385 14.1542 103.139 13.4157 103.139 12.4311C103.139 11.5696 103.385 10.7081 103.877 10.2157C104.369 9.60036 104.985 9.35421 105.723 9.35421C106.462 9.35421 106.954 9.60036 107.323 10.2157V6.89267H108.554V15.2619H108.677ZM107.323 12.8004V11.9388V11.4465C107.323 11.2004 107.077 10.9542 106.831 10.7081C106.604 10.4762 106.294 10.3434 105.969 10.3388C105.477 10.3388 105.108 10.585 104.739 10.9542C104.462 11.3951 104.333 11.9122 104.369 12.4311C104.369 12.9234 104.492 13.4157 104.739 13.785C105.108 14.1542 105.477 14.4004 105.969 14.4004C106.339 14.4004 106.708 14.1542 106.954 13.9081L107.323 12.8004ZM119.631 12.4311C119.631 13.2927 119.385 14.0311 118.892 14.5234C118.4 15.1388 117.662 15.385 116.8 15.385C116.408 15.4192 116.013 15.3588 115.649 15.2089C115.285 15.059 114.962 14.8239 114.708 14.5234C114.215 14.0311 113.969 13.2927 113.969 12.4311C113.969 11.5696 114.215 10.8311 114.831 10.2157C115.446 9.60036 116.062 9.35421 116.923 9.35421C117.785 9.35421 118.4 9.72344 118.892 10.2157C119.385 10.8311 119.631 11.4465 119.631 12.3081V12.4311ZM118.4 12.4311C118.4 11.8157 118.277 11.4465 118.031 11.0773C117.929 10.8409 117.755 10.6425 117.534 10.5101C117.313 10.3776 117.057 10.3177 116.8 10.3388C116.557 10.3071 116.31 10.3488 116.091 10.4584C115.871 10.5681 115.69 10.7407 115.569 10.9542C115.336 11.409 115.25 11.9252 115.323 12.4311C115.323 12.9234 115.446 13.4157 115.692 13.6619C115.939 14.2773 116.308 14.4004 116.923 14.4004C117.292 14.4004 117.662 14.1542 118.031 13.785C118.277 13.4157 118.4 12.9234 118.4 12.3081V12.4311ZM126.646 15.2619H125.415V11.9388C125.415 10.9542 124.923 10.4619 124.185 10.4619C123.815 10.4619 123.446 10.585 123.2 10.8311C122.954 11.0773 122.831 11.4465 122.831 11.8157V15.2619H121.6V11.2004V9.47728H122.708V10.3388C122.954 10.0927 123.077 9.84651 123.446 9.72344C123.815 9.47728 124.185 9.35421 124.677 9.35421C125.169 9.35421 125.539 9.47728 125.908 9.84651C126.4 10.3388 126.646 11.0773 126.646 11.8157V15.2619ZM135.262 10.4619H133.908V13.2927C133.908 14.0311 134.154 14.4004 134.646 14.4004H135.262V15.2619L134.277 15.385C133.785 15.385 133.292 15.385 133.046 15.0157C132.8 14.6465 132.554 14.1542 132.554 13.4157V10.4619H131.692V9.47728H132.554V8.61575L133.785 8.24651V9.60036H135.262V10.585V10.4619ZM142.154 15.385H140.923V12.0619C140.923 10.9542 140.431 10.4619 139.692 10.4619C139.077 10.4619 138.708 10.7081 138.462 11.3234V15.2619H137.108V6.89267H138.339V10.3388C138.831 9.72344 139.323 9.35421 140.062 9.35421C140.677 9.35421 141.046 9.60036 141.415 9.96959C141.908 10.3388 142.154 10.9542 142.154 11.8157V15.2619V15.385ZM149.169 12.185V12.6773H145.231C145.231 13.2927 145.477 13.785 145.846 14.0311C146.215 14.2773 146.585 14.4004 147.077 14.4004C147.692 14.4004 148.308 14.4004 148.677 14.1542L148.923 15.0157C148.308 15.2619 147.692 15.385 146.954 15.385C146.092 15.385 145.354 15.1388 144.862 14.6465C144.246 14.0311 144 13.4157 144 12.4311C144 11.5696 144.246 10.8311 144.739 10.3388C144.98 10.0159 145.297 9.75722 145.662 9.58553C146.027 9.41385 146.428 9.33441 146.831 9.35421C147.692 9.35421 148.308 9.72344 148.677 10.3388C149.046 10.8311 149.169 11.4465 149.169 12.0619V12.185ZM147.939 11.8157C147.939 11.4465 147.939 11.0773 147.692 10.8311C147.446 10.4619 147.077 10.2157 146.708 10.2157C146.485 10.2082 146.264 10.2615 146.069 10.3699C145.874 10.4783 145.712 10.6378 145.6 10.8311L145.231 11.8157H147.939Z" fill="white"/>
</g>
<defs>
<clipPath id="clip0_4041_168035">
<rect width="164.923" height="48" fill="white"/>
</clipPath>
</defs>
</svg>
