<svg width="165" height="49" viewBox="0 0 165 49" fill="none" xmlns="http://www.w3.org/2000/svg">
<g clip-path="url(#clip0_4041_168038)">
<rect x="-0.128174" width="165" height="48" rx="8" fill="black"/>
<path d="M57.9379 12.6961C57.9379 13.7475 57.4826 14.4985 56.8755 15.0994C56.2683 15.8504 55.3577 16.1508 54.2952 16.1508C53.2328 16.1508 52.3221 15.8504 51.5632 15.0994C50.8043 14.3483 50.5007 13.4471 50.5007 12.3957C50.5007 11.3443 50.8043 10.4431 51.5632 9.69205C52.3221 8.94103 53.2328 8.64062 54.2952 8.64062C54.7505 8.64062 55.3577 8.64062 55.813 8.94103L56.8755 9.69205L56.2683 10.2929C55.813 9.84225 55.2059 9.54184 54.2952 9.54184C53.5363 9.54184 52.7774 9.69205 52.3221 10.2929C51.715 10.7435 51.4114 11.4945 51.4114 12.3957C51.4114 13.1467 51.715 13.8977 52.3221 14.4985C52.9292 14.9492 53.5363 15.2496 54.2952 15.2496C55.2059 15.2496 55.813 14.9492 56.4201 14.4985L57.0272 12.9965H54.2952V12.0953H57.9379V12.6961ZM63.402 9.69205H60.0628V11.9451H63.0984V12.8463H60.0628V15.0994H63.402V16.0006H59.1521V8.79083H63.402V9.69205ZM67.3482 16.0006H66.4375V9.69205H64.4644V8.79083H69.4731V9.69205H67.3482V16.0006ZM73.1158 16.0006V8.79083H74.0265V16.0006H72.964H73.1158ZM78.1245 16.0006H77.2139V9.69205H75.0889V8.79083H80.0977V9.69205H78.1245V16.0006ZM89.6597 15.0994C88.9008 15.8504 88.1419 16.1508 86.9277 16.1508C85.7135 16.1508 84.9546 15.8504 84.3475 15.0994C83.5886 14.3483 83.285 13.5973 83.285 12.3957C83.285 11.1941 83.5886 10.4431 84.3475 9.69205C84.9546 8.94103 85.8653 8.64062 86.9277 8.64062C87.9902 8.64062 88.9008 8.94103 89.6597 9.69205C90.4186 10.4431 90.7222 11.3443 90.7222 12.3957C90.7222 13.4471 90.4186 14.3483 89.6597 15.0994ZM85.1064 14.4985C85.5617 14.9492 86.1688 15.2496 86.9277 15.2496C87.6866 15.2496 88.4455 14.9492 88.9008 14.4985C89.508 13.8977 89.8115 13.2969 89.8115 12.3957C89.8115 11.4945 89.508 10.8937 88.9008 10.2929C88.4455 9.84225 87.6866 9.54184 86.9277 9.54184C86.1688 9.54184 85.4099 9.84225 84.9546 10.2929C84.4992 10.8937 84.1957 11.4945 84.1957 12.3957C84.1957 13.2969 84.4992 13.8977 84.9546 14.4985H85.1064ZM92.0882 16.0006V8.79083H93.1506L96.7933 14.3483V8.79083H97.704V16.0006H96.6416L92.9989 10.1427V16.1508H92.0882V16.0006Z" fill="white" stroke="white" stroke-width="0.301978" stroke-miterlimit="10"/>
<path d="M83.0419 26.5494C81.6915 26.5494 80.3964 27.0858 79.4416 28.0407C78.4867 28.9955 77.9503 30.2906 77.9503 31.641C77.9503 34.5505 80.2536 36.7326 83.0419 36.7326C85.9514 36.7326 88.2547 34.5505 88.2547 31.641C88.2547 28.6103 85.9514 26.5494 83.1631 26.5494H83.0419ZM83.0419 34.6717C81.4659 34.6717 80.1324 33.4594 80.1324 31.641C80.1324 29.8225 81.4659 28.489 83.0419 28.489C84.6179 28.489 85.9514 29.7013 85.9514 31.641C85.9514 33.4594 84.7391 34.6717 83.0419 34.6717ZM71.7676 26.6706C71.0888 26.6544 70.4136 26.7742 69.7818 27.0228C69.15 27.2714 68.5743 27.6439 68.0886 28.1183C67.6029 28.5928 67.217 29.1595 66.9535 29.7853C66.6901 30.4111 66.5545 31.0832 66.5547 31.7622C66.5547 34.6717 68.8581 36.8538 71.7676 36.8538C74.5558 36.8538 76.8592 34.6717 76.8592 31.7622C76.8592 28.7315 74.5558 26.6706 71.7676 26.6706ZM71.7676 34.7929C70.1916 34.7929 68.8581 33.5807 68.8581 31.7622C68.8581 29.9438 70.0703 28.6103 71.7676 28.6103C73.3435 28.6103 74.6771 29.8225 74.6771 31.7622C74.6771 33.5807 73.2223 34.7929 71.7676 34.7929ZM58.1899 28.1253V30.3075H63.4027C63.2815 31.5198 62.7966 32.3684 62.1904 32.9745C61.4631 33.7019 60.2508 34.5505 58.1899 34.5505C54.9167 34.5505 52.3709 32.0047 52.3709 28.8527C52.3709 25.7007 54.9167 23.0337 58.1899 23.0337C59.8871 23.0337 61.2206 23.7611 62.1904 24.6097L63.6452 23.0337C62.497 21.9493 61.0575 21.2231 59.503 20.9441C57.9484 20.6651 56.3463 20.8454 54.8926 21.4629C53.4389 22.0804 52.1968 23.1083 51.3183 24.4208C50.4398 25.7333 49.963 27.2734 49.9463 28.8527C49.9463 33.217 53.7044 36.7326 58.1899 36.7326C59.174 36.8013 60.1615 36.6622 61.0883 36.3242C62.0151 35.9863 62.8604 35.4571 63.5693 34.7711C64.2782 34.0851 64.8348 33.2576 65.2029 32.3423C65.5711 31.4271 65.7425 30.4447 65.7061 29.4589C65.7061 28.9739 65.7061 28.489 65.4636 28.1253H58.1899ZM113.228 29.7013C112.743 28.6103 111.531 26.6706 108.864 26.6706C106.197 26.6706 104.015 28.7315 104.015 31.7622C104.015 34.5505 106.197 36.8538 109.106 36.8538C111.531 36.8538 112.864 35.3991 113.47 34.5505L111.773 33.3382C111.167 34.308 110.318 34.7929 109.227 34.7929C108.015 34.7929 107.167 34.308 106.682 33.3382L113.592 30.4287L113.349 29.8225L113.228 29.7013ZM106.318 31.5198C106.318 29.5801 107.773 28.6103 108.985 28.6103C109.834 28.6103 110.682 28.9739 110.925 29.7013L106.318 31.5198ZM100.62 36.3689H103.045V21.3365H100.62V36.3689ZM96.9832 27.6404H96.862C96.3771 27.0343 95.4073 26.4281 94.195 26.4281C92.8285 26.4281 91.518 26.971 90.5518 27.9372C89.5856 28.9034 89.0427 30.2139 89.0427 31.5804C89.0427 32.9468 89.5856 34.2573 90.5518 35.2236C91.518 36.1898 92.8285 36.7326 94.195 36.7326C94.6993 36.7265 95.1968 36.6156 95.656 36.4069C96.1151 36.1982 96.5258 35.8963 96.862 35.5203V36.2477C96.862 38.1874 95.8922 39.2784 94.195 39.2784C92.8615 39.2784 92.0128 38.3086 91.6492 37.46L89.5883 38.3086C89.9574 39.2219 90.5959 40.0011 91.4189 40.5425C92.2418 41.0839 93.2102 41.3619 94.195 41.3393C96.862 41.3393 99.0441 39.7633 99.0441 36.0052V26.6706H96.9832V27.5192V27.6404ZM94.3162 34.6717C92.7402 34.6717 91.5279 33.4594 91.5279 31.641C91.5279 29.8225 92.7402 28.489 94.3162 28.489C95.8922 28.489 97.1045 29.7013 97.1045 31.641C97.1045 33.3382 95.8922 34.6717 94.3162 34.6717ZM124.017 21.3365H118.562V36.3689H120.744V30.6712H124.017C126.442 30.6712 128.867 28.8527 128.867 26.0644C128.867 23.1549 126.442 21.3365 124.017 21.3365ZM124.017 28.6103H120.744V23.5186H124.017C125.715 23.5186 126.684 24.8521 126.684 26.0644C126.684 27.2767 125.715 28.6103 124.017 28.6103ZM138.08 26.4281C136.383 26.4281 134.686 27.1555 133.958 28.8527L136.019 29.5801C136.504 28.7315 137.231 28.489 138.08 28.489C139.292 28.489 140.505 29.2164 140.505 30.4287V30.5499C140.02 30.3075 139.171 30.065 138.08 30.065C135.898 30.065 133.716 31.2773 133.716 33.3382C133.716 35.3991 135.534 36.7326 137.474 36.7326C139.05 36.7326 139.898 36.0052 140.383 35.2779V36.3689H142.687V30.5499C142.687 28.0041 140.626 26.4281 137.959 26.4281H138.08ZM137.716 34.6717C136.989 34.6717 136.019 34.308 136.019 33.4594C136.019 32.2471 137.231 31.7622 138.444 31.7622C139.413 31.7622 139.898 32.0047 140.505 32.3684C140.262 33.7019 139.05 34.7929 137.716 34.7929V34.6717ZM150.567 26.7918L148.021 33.3382L145.233 26.7918H142.808L146.93 35.884L144.505 40.9756H146.93L153.234 26.7918H150.688H150.567ZM130.2 36.4902H132.503V21.4577H130.2V36.3689V36.4902Z" fill="white"/>
<path d="M13.0114 9.42423C12.5561 9.87484 12.4043 10.4756 12.4043 11.2267V37.8126C12.4043 38.4134 12.5561 39.0142 13.0114 39.3146V39.4648L28.1893 24.5947V24.2943L13.0114 9.27403V9.42423Z" fill="url(#paint0_linear_4041_168038)"/>
<path d="M33.0461 29.5518L28.0374 24.5951V24.2947L33.0461 19.3379H33.1978L39.1172 22.6424C40.7868 23.6938 40.7868 25.1959 39.1172 26.2473L33.1978 29.5518H33.0461Z" fill="url(#paint1_linear_4041_168038)"/>
<path d="M33.1978 29.552L28.0373 24.4451L12.8594 39.4654C13.4665 40.0662 14.3772 40.0662 15.4396 39.4654L33.1978 29.552Z" fill="url(#paint2_linear_4041_168038)"/>
<path d="M33.1978 19.3384L15.4397 9.425C14.3772 8.82419 13.4666 8.82419 13.0112 9.425L28.1891 24.4453L33.1978 19.3384Z" fill="url(#paint3_linear_4041_168038)"/>
</g>
<defs>
<linearGradient id="paint0_linear_4041_168038" x1="26.7322" y1="38.0229" x2="6.54605" y2="17.6249" gradientUnits="userSpaceOnUse">
<stop stop-color="#00A1FF"/>
<stop offset="0.3" stop-color="#00BEFF"/>
<stop offset="0.5" stop-color="#00D2FF"/>
<stop offset="0.8" stop-color="#00DFFF"/>
<stop offset="1" stop-color="#00E3FF"/>
</linearGradient>
<linearGradient id="paint1_linear_4041_168038" x1="41.3028" y1="24.4449" x2="11.9184" y2="24.4449" gradientUnits="userSpaceOnUse">
<stop stop-color="#FFE000"/>
<stop offset="0.4" stop-color="#FFBD00"/>
<stop offset="0.8" stop-color="#FFA500"/>
<stop offset="1" stop-color="#FF9C00"/>
</linearGradient>
<linearGradient id="paint2_linear_4041_168038" x1="30.3747" y1="21.6814" x2="3.10054" y2="-6.00036" gradientUnits="userSpaceOnUse">
<stop stop-color="#FF3A44"/>
<stop offset="1" stop-color="#C31162"/>
</linearGradient>
<linearGradient id="paint3_linear_4041_168038" x1="9.12569" y1="48.2375" x2="21.3829" y2="35.9731" gradientUnits="userSpaceOnUse">
<stop stop-color="#32A071"/>
<stop offset="0.1" stop-color="#2DA771"/>
<stop offset="0.5" stop-color="#15CF74"/>
<stop offset="0.8" stop-color="#06E775"/>
<stop offset="1" stop-color="#00F076"/>
</linearGradient>
<clipPath id="clip0_4041_168038">
<rect width="164.872" height="48.4917" fill="white"/>
</clipPath>
</defs>
</svg>
